G04 #@! TF.GenerationSoftware,KiCad,Pcbnew,(5.1.5)-3*
G04 #@! TF.CreationDate,2020-02-11T13:38:22+02:00*
G04 #@! TF.ProjectId,PCB,5043422e-6b69-4636-9164-5f7063625858,rev?*
G04 #@! TF.SameCoordinates,Original*
G04 #@! TF.FileFunction,Copper,L1,Top*
G04 #@! TF.FilePolarity,Positive*
%FSLAX46Y46*%
G04 Gerber Fmt 4.6, Leading zero omitted, Abs format (unit mm)*
G04 Created by KiCad (PCBNEW (5.1.5)-3) date 2020-02-11 13:38:22*
%MOMM*%
%LPD*%
G04 APERTURE LIST*
%ADD10O,1.700000X1.700000*%
%ADD11R,1.700000X1.700000*%
%ADD12C,1.524000*%
%ADD13O,1.600000X1.600000*%
%ADD14R,1.600000X1.600000*%
%ADD15O,1.400000X1.400000*%
%ADD16C,1.400000*%
%ADD17R,1.727200X1.727200*%
%ADD18O,1.727200X1.727200*%
%ADD19C,0.250000*%
%ADD20C,1.400000*%
%ADD21C,0.500000*%
G04 APERTURE END LIST*
D10*
X154940000Y-45720000D03*
D11*
X154940000Y-48260000D03*
D10*
X154940000Y-36830000D03*
D11*
X154940000Y-39370000D03*
D10*
X170180000Y-36830000D03*
X172720000Y-36830000D03*
X175260000Y-36830000D03*
D11*
X177800000Y-36830000D03*
D10*
X134620000Y-36830000D03*
X137160000Y-36830000D03*
X139700000Y-36830000D03*
D11*
X142240000Y-36830000D03*
D10*
X203200000Y-99060000D03*
X203200000Y-101600000D03*
X203200000Y-104140000D03*
D11*
X203200000Y-106680000D03*
D12*
X187960000Y-34290000D03*
X187960000Y-31750000D03*
X187960000Y-36830000D03*
D13*
X190500000Y-64770000D03*
X193040000Y-64770000D03*
X153420000Y-64770000D03*
X193040000Y-107950000D03*
X155960000Y-64770000D03*
X190500000Y-107950000D03*
X158500000Y-64770000D03*
X187960000Y-107950000D03*
X161040000Y-64770000D03*
X185420000Y-107950000D03*
X163830000Y-64770000D03*
X182880000Y-107950000D03*
X166370000Y-64770000D03*
X180340000Y-107950000D03*
X168910000Y-64770000D03*
X175260000Y-107950000D03*
X171450000Y-64770000D03*
X172720000Y-107950000D03*
X175260000Y-64770000D03*
X170180000Y-107950000D03*
X177800000Y-64770000D03*
X167640000Y-107950000D03*
X180340000Y-64770000D03*
X165100000Y-107950000D03*
X182880000Y-64770000D03*
X162560000Y-107950000D03*
X185420000Y-64770000D03*
X160020000Y-107950000D03*
X187960000Y-64770000D03*
D14*
X157480000Y-107950000D03*
D13*
X150880000Y-64770000D03*
X148340000Y-64770000D03*
D15*
X212090000Y-101600000D03*
D16*
X207010000Y-101600000D03*
D15*
X212090000Y-104140000D03*
D16*
X207010000Y-104140000D03*
D15*
X212090000Y-106680000D03*
D16*
X207010000Y-106680000D03*
D17*
X203200000Y-82550000D03*
D18*
X205740000Y-82550000D03*
X203200000Y-85090000D03*
X205740000Y-85090000D03*
X203200000Y-87630000D03*
X205740000Y-87630000D03*
X203200000Y-90170000D03*
X205740000Y-90170000D03*
D14*
X147320000Y-41910000D03*
D13*
X129540000Y-54610000D03*
X144780000Y-41910000D03*
X132080000Y-54610000D03*
X142240000Y-41910000D03*
X134620000Y-54610000D03*
X139700000Y-41910000D03*
X137160000Y-54610000D03*
X137160000Y-41910000D03*
X139700000Y-54610000D03*
X134620000Y-41910000D03*
X142240000Y-54610000D03*
X132080000Y-41910000D03*
X144780000Y-54610000D03*
X129540000Y-41910000D03*
X147320000Y-54610000D03*
X182880000Y-54610000D03*
X165100000Y-41910000D03*
X180340000Y-54610000D03*
X167640000Y-41910000D03*
X177800000Y-54610000D03*
X170180000Y-41910000D03*
X175260000Y-54610000D03*
X172720000Y-41910000D03*
X172720000Y-54610000D03*
X175260000Y-41910000D03*
X170180000Y-54610000D03*
X177800000Y-41910000D03*
X167640000Y-54610000D03*
X180340000Y-41910000D03*
X165100000Y-54610000D03*
D14*
X182880000Y-41910000D03*
D16*
X214630000Y-49530000D03*
D15*
X209550000Y-49530000D03*
X214630000Y-53340000D03*
D16*
X209550000Y-53340000D03*
D15*
X212090000Y-99060000D03*
D16*
X207010000Y-99060000D03*
D11*
X203200000Y-116840000D03*
D10*
X205740000Y-116840000D03*
X208280000Y-116840000D03*
X210820000Y-116840000D03*
D11*
X120650000Y-85090000D03*
D10*
X120650000Y-87630000D03*
X120650000Y-90170000D03*
X120650000Y-92710000D03*
X120650000Y-95250000D03*
X120650000Y-97790000D03*
D19*
X182880000Y-54610000D02*
X182880000Y-62230000D01*
X182880000Y-64770000D02*
X182880000Y-62230000D01*
D20*
X161830000Y-38640000D02*
X165100000Y-41910000D01*
X149860000Y-39370000D02*
X154940000Y-39370000D01*
X143510000Y-33020000D02*
X149860000Y-39370000D01*
X133350000Y-33020000D02*
X143510000Y-33020000D01*
X129540000Y-41910000D02*
X129540000Y-36830000D01*
X129540000Y-36830000D02*
X133350000Y-33020000D01*
X161100000Y-39370000D02*
X161830000Y-38640000D01*
X154940000Y-39370000D02*
X161100000Y-39370000D01*
X168910000Y-31750000D02*
X161830000Y-38640000D01*
X187960000Y-31750000D02*
X168910000Y-31750000D01*
D19*
X180340000Y-54610000D02*
X180340000Y-62230000D01*
X180340000Y-62230000D02*
X180340000Y-64770000D01*
D20*
X132080000Y-41910000D02*
X136430000Y-46260000D01*
X163290000Y-46260000D02*
X167640000Y-41910000D01*
X154940000Y-46260000D02*
X163290000Y-46260000D01*
D19*
X155894594Y-46260000D02*
X154940000Y-46260000D01*
X154940000Y-46260000D02*
X150620000Y-46260000D01*
D21*
X153985406Y-46260000D02*
X154940000Y-46260000D01*
X150370000Y-46260000D02*
X153985406Y-46260000D01*
X182880000Y-38535000D02*
X186585000Y-34830000D01*
X182880000Y-41910000D02*
X182880000Y-38535000D01*
X156750000Y-46260000D02*
X154940000Y-46260000D01*
X133350000Y-50800000D02*
X129540000Y-54610000D01*
X158750000Y-50800000D02*
X133350000Y-50800000D01*
X167640000Y-57150000D02*
X165100000Y-54610000D01*
X182880000Y-45720000D02*
X179070000Y-49530000D01*
X182880000Y-41910000D02*
X182880000Y-45720000D01*
X177800000Y-57150000D02*
X167640000Y-57150000D01*
X179070000Y-55880000D02*
X177800000Y-57150000D01*
X179070000Y-49530000D02*
X179070000Y-55880000D01*
D19*
X119550000Y-85090000D02*
X119024990Y-85615010D01*
X120650000Y-85090000D02*
X119550000Y-85090000D01*
D21*
X119300000Y-85090000D02*
X120650000Y-85090000D01*
X170180000Y-107950000D02*
X168910000Y-109220000D01*
X118899989Y-99849989D02*
X118899989Y-85490011D01*
X128270000Y-109220000D02*
X118899989Y-99849989D01*
X118899989Y-85490011D02*
X119300000Y-85090000D01*
X205740000Y-82550000D02*
X207010000Y-82550000D01*
X213360000Y-54610000D02*
X214630000Y-53340000D01*
X207010000Y-82550000D02*
X213360000Y-76200000D01*
X212090000Y-99060000D02*
X212090000Y-106680000D01*
X152400000Y-109220000D02*
X128270000Y-109220000D01*
X168910000Y-109220000D02*
X152400000Y-109220000D01*
X190956814Y-58420000D02*
X207010000Y-58420000D01*
X213360000Y-76200000D02*
X213360000Y-64770000D01*
X152400000Y-109220000D02*
X152400000Y-102870000D01*
X152400000Y-102870000D02*
X186690000Y-68580000D01*
X186690000Y-62686814D02*
X190956814Y-58420000D01*
X186690000Y-68580000D02*
X186690000Y-62686814D01*
D19*
X204551399Y-83738601D02*
X204551399Y-91521399D01*
X205740000Y-82550000D02*
X204551399Y-83738601D01*
X204551399Y-91521399D02*
X212090000Y-99060000D01*
D21*
X189230000Y-34290000D02*
X187960000Y-34290000D01*
X198120000Y-34290000D02*
X189230000Y-34290000D01*
X212090000Y-48260000D02*
X198120000Y-34290000D01*
X214630000Y-53340000D02*
X212090000Y-50800000D01*
X212090000Y-50800000D02*
X212090000Y-48260000D01*
X163290000Y-46260000D02*
X163290000Y-50260000D01*
X162750000Y-50800000D02*
X158750000Y-50800000D01*
X163290000Y-50260000D02*
X162750000Y-50800000D01*
X147320000Y-45720000D02*
X147320000Y-41910000D01*
X147860000Y-46260000D02*
X147320000Y-45720000D01*
D20*
X147860000Y-46260000D02*
X154940000Y-46260000D01*
X136430000Y-46260000D02*
X147860000Y-46260000D01*
D21*
X207010000Y-58420000D02*
X213360000Y-58420000D01*
X213360000Y-64770000D02*
X213360000Y-58420000D01*
X213360000Y-58420000D02*
X213360000Y-54610000D01*
D20*
X167640000Y-35560000D02*
X167640000Y-41910000D01*
X187960000Y-34290000D02*
X168910000Y-34290000D01*
X168910000Y-34290000D02*
X167640000Y-35560000D01*
X170180000Y-41910000D02*
X170180000Y-36830000D01*
D21*
X136579998Y-48260000D02*
X153765000Y-48260000D01*
X133826348Y-34170010D02*
X130790001Y-37206357D01*
X143033652Y-34170010D02*
X133826348Y-34170010D01*
X153765000Y-48260000D02*
X154940000Y-48260000D01*
X144780000Y-35916358D02*
X143033652Y-34170010D01*
X144780000Y-41910000D02*
X144780000Y-35916358D01*
X130810000Y-48260000D02*
X136579998Y-48260000D01*
X137160000Y-57150000D02*
X128270000Y-57150000D01*
X139700000Y-54610000D02*
X137160000Y-57150000D01*
X128270000Y-57150000D02*
X127000000Y-55880000D01*
X127000000Y-52070000D02*
X130810000Y-48260000D01*
X127000000Y-55880000D02*
X127000000Y-52070000D01*
X172720000Y-52070000D02*
X175260000Y-54610000D01*
X139700000Y-54610000D02*
X142240000Y-52070000D01*
X142240000Y-52070000D02*
X172720000Y-52070000D01*
X180340000Y-41910000D02*
X180340000Y-44450000D01*
X180340000Y-44450000D02*
X172720000Y-52070000D01*
X167640000Y-107950000D02*
X168910000Y-106680000D01*
X175840002Y-106680000D02*
X176530000Y-107369998D01*
X168910000Y-106680000D02*
X175840002Y-106680000D01*
X176530000Y-108530002D02*
X174570002Y-110490000D01*
X176530000Y-107369998D02*
X176530000Y-108530002D01*
X174570002Y-110490000D02*
X127000000Y-110490000D01*
X127000000Y-110490000D02*
X116840000Y-100330000D01*
X116840000Y-100330000D02*
X116840000Y-85090000D01*
X121920000Y-82550000D02*
X119380000Y-82550000D01*
X123190000Y-83820000D02*
X121920000Y-82550000D01*
X116840000Y-85090000D02*
X119380000Y-82550000D01*
X123190000Y-83820000D02*
X123190000Y-85090000D01*
X123190000Y-85090000D02*
X120650000Y-87630000D01*
X210820000Y-116840000D02*
X203200000Y-116840000D01*
X184839998Y-116840000D02*
X176530000Y-108530002D01*
X203200000Y-116840000D02*
X184839998Y-116840000D01*
X128270000Y-76200000D02*
X121920000Y-82550000D01*
X128270000Y-57150000D02*
X128270000Y-76200000D01*
X130790001Y-41929999D02*
X130790001Y-48240001D01*
X130790001Y-41929999D02*
X130790001Y-42470003D01*
X130790001Y-37206357D02*
X130790001Y-41929999D01*
D20*
X172720000Y-41910000D02*
X172720000Y-36830000D01*
X175260000Y-41910000D02*
X175260000Y-36830000D01*
X177800000Y-36830000D02*
X177800000Y-41910000D01*
X142240000Y-36830000D02*
X142240000Y-41910000D01*
X139700000Y-36830000D02*
X139700000Y-41910000D01*
X137160000Y-36830000D02*
X137160000Y-41910000D01*
X134620000Y-36830000D02*
X134620000Y-41910000D01*
D19*
X175260000Y-62230000D02*
X175260000Y-64770000D01*
X174134999Y-61104999D02*
X175260000Y-62230000D01*
X144780000Y-54610000D02*
X151274999Y-61104999D01*
X151274999Y-61104999D02*
X174134999Y-61104999D01*
X177800000Y-62230000D02*
X177800000Y-64770000D01*
X176224989Y-60654989D02*
X177800000Y-62230000D01*
X147320000Y-54610000D02*
X153364989Y-60654989D01*
X153364989Y-60654989D02*
X176224989Y-60654989D01*
X203200000Y-82550000D02*
X203200000Y-81436400D01*
X187960000Y-66196400D02*
X203200000Y-81436400D01*
X187960000Y-64770000D02*
X187960000Y-66196400D01*
X209550000Y-53340000D02*
X209550000Y-49530000D01*
X194310000Y-53340000D02*
X185420000Y-62230000D01*
X209550000Y-53340000D02*
X194310000Y-53340000D01*
X185420000Y-62230000D02*
X185420000Y-64770000D01*
X187960000Y-36830000D02*
X187960000Y-43180000D01*
X168910000Y-64770000D02*
X170180000Y-66040000D01*
X180735002Y-66040000D02*
X181754999Y-65020003D01*
X170180000Y-66040000D02*
X180735002Y-66040000D01*
X181754999Y-65020003D02*
X181754999Y-50944999D01*
X187960000Y-44739998D02*
X187960000Y-36830000D01*
X181754999Y-50944999D02*
X187960000Y-44739998D01*
X180340000Y-107950000D02*
X188880000Y-99410000D01*
X207010000Y-99060000D02*
X203200000Y-99060000D01*
X189230000Y-99060000D02*
X203200000Y-99060000D01*
X180340000Y-107950000D02*
X189230000Y-99060000D01*
X133350000Y-97790000D02*
X166370000Y-64770000D01*
X120650000Y-97790000D02*
X133350000Y-97790000D01*
X203200000Y-101600000D02*
X207010000Y-101600000D01*
X189230000Y-101600000D02*
X182880000Y-107950000D01*
X203200000Y-101600000D02*
X189230000Y-101600000D01*
X135890000Y-92710000D02*
X163830000Y-64770000D01*
X120650000Y-92710000D02*
X135890000Y-92710000D01*
X207010000Y-104140000D02*
X203200000Y-104140000D01*
X189230000Y-104140000D02*
X203200000Y-104140000D01*
X185420000Y-107950000D02*
X189230000Y-104140000D01*
X154690000Y-71120000D02*
X161040000Y-64770000D01*
X135640000Y-90170000D02*
X161040000Y-64770000D01*
X120650000Y-90170000D02*
X135640000Y-90170000D01*
X203200000Y-106680000D02*
X207010000Y-106680000D01*
X189230000Y-106680000D02*
X187960000Y-107950000D01*
X203200000Y-106680000D02*
X189230000Y-106680000D01*
X157700001Y-65569999D02*
X158500000Y-64770000D01*
X134464999Y-88805001D02*
X157700001Y-65569999D01*
X120275997Y-88805001D02*
X134464999Y-88805001D01*
X119474999Y-89605999D02*
X120275997Y-88805001D01*
X119474999Y-94074999D02*
X119474999Y-89605999D01*
X120650000Y-95250000D02*
X119474999Y-94074999D01*
D21*
X154940000Y-37370000D02*
X155894594Y-37370000D01*
X155894594Y-37370000D02*
X165324594Y-27940000D01*
X165324594Y-27940000D02*
X201930000Y-27940000D01*
X201930000Y-27940000D02*
X223520000Y-49530000D01*
X202336401Y-89306401D02*
X203200000Y-90170000D01*
X201886399Y-88856399D02*
X202336401Y-89306401D01*
X201886399Y-86403601D02*
X201886399Y-88856399D01*
X203200000Y-85090000D02*
X201886399Y-86403601D01*
X223520000Y-49530000D02*
X223520000Y-101600000D01*
X223520000Y-101600000D02*
X213360000Y-111760000D01*
X213360000Y-111760000D02*
X181610000Y-111760000D01*
X179089999Y-109239999D02*
X179089999Y-104159999D01*
X181610000Y-111760000D02*
X179089999Y-109239999D01*
X179089999Y-104159999D02*
X190539998Y-92710000D01*
X200660000Y-92710000D02*
X203200000Y-90170000D01*
X190539998Y-92710000D02*
X200660000Y-92710000D01*
D19*
X217170000Y-52070000D02*
X214630000Y-49530000D01*
X205740000Y-90170000D02*
X217170000Y-78740000D01*
X217170000Y-78740000D02*
X217170000Y-52070000D01*
M02*
