M48
; DRILL file {KiCad (5.1.5)-3} date 11/02/2020 13:38:26
; FORMAT={-:-/ absolute / inch / decimal}
; #@! TF.CreationDate,2020-02-11T13:38:26+02:00
; #@! TF.GenerationSoftware,Kicad,Pcbnew,(5.1.5)-3
; #@! TF.FileFunction,Plated,1,2,PTH
FMAT,2
INCH
T1C0.0276
T2C0.0300
T3C0.0315
T4C0.0394
T5C0.0400
%
G90
G05
T1
X8.15Y-3.9
X8.35Y-3.9
X8.25Y-1.95
X8.45Y-1.95
X8.25Y-2.1
X8.45Y-2.1
X8.15Y-4.2
X8.35Y-4.2
X8.15Y-4.1
X8.35Y-4.1
X8.15Y-4.0
X8.35Y-4.0
T2
X7.4Y-1.25
X7.4Y-1.35
X7.4Y-1.45
T3
X6.5Y-1.65
X6.5Y-2.15
X6.6Y-1.65
X6.6Y-2.15
X6.7Y-1.65
X6.7Y-2.15
X6.8Y-1.65
X6.8Y-2.15
X6.9Y-1.65
X6.9Y-2.15
X7.0Y-1.65
X7.0Y-2.15
X7.1Y-1.65
X7.1Y-2.15
X7.2Y-1.65
X7.2Y-2.15
X5.8402Y-2.55
X5.9402Y-2.55
X6.0402Y-2.55
X6.1402Y-2.55
X6.2Y-4.25
X6.2402Y-2.55
X6.3Y-4.25
X6.3402Y-2.55
X6.4Y-4.25
X6.45Y-2.55
X6.5Y-4.25
X6.55Y-2.55
X6.6Y-4.25
X6.65Y-2.55
X6.7Y-4.25
X6.75Y-2.55
X6.8Y-4.25
X6.9Y-2.55
X6.9Y-4.25
X7.0Y-2.55
X7.1Y-2.55
X7.1Y-4.25
X7.2Y-2.55
X7.2Y-4.25
X7.3Y-2.55
X7.3Y-4.25
X7.4Y-2.55
X7.4Y-4.25
X7.5Y-2.55
X7.5Y-4.25
X7.6Y-2.55
X7.6Y-4.25
X5.1Y-1.65
X5.1Y-2.15
X5.2Y-1.65
X5.2Y-2.15
X5.3Y-1.65
X5.3Y-2.15
X5.4Y-1.65
X5.4Y-2.15
X5.5Y-1.65
X5.5Y-2.15
X5.6Y-1.65
X5.6Y-2.15
X5.7Y-1.65
X5.7Y-2.15
X5.8Y-1.65
X5.8Y-2.15
T4
X5.3Y-1.45
X5.4Y-1.45
X5.5Y-1.45
X5.6Y-1.45
X6.7Y-1.45
X6.8Y-1.45
X6.9Y-1.45
X7.0Y-1.45
X6.1Y-1.8
X6.1Y-1.9
X6.1Y-1.45
X6.1Y-1.55
X8.0Y-4.6
X8.1Y-4.6
X8.2Y-4.6
X8.3Y-4.6
X4.75Y-3.35
X4.75Y-3.45
X4.75Y-3.55
X4.75Y-3.65
X4.75Y-3.75
X4.75Y-3.85
X8.0Y-3.9
X8.0Y-4.0
X8.0Y-4.1
X8.0Y-4.2
T5
X8.0Y-3.25
X8.0Y-3.35
X8.0Y-3.45
X8.0Y-3.55
X8.1Y-3.25
X8.1Y-3.35
X8.1Y-3.45
X8.1Y-3.55
T0
M30
