G04 #@! TF.GenerationSoftware,KiCad,Pcbnew,(5.1.5)-3*
G04 #@! TF.CreationDate,2020-02-11T13:38:22+02:00*
G04 #@! TF.ProjectId,PCB,5043422e-6b69-4636-9164-5f7063625858,rev?*
G04 #@! TF.SameCoordinates,Original*
G04 #@! TF.FileFunction,Legend,Top*
G04 #@! TF.FilePolarity,Positive*
%FSLAX46Y46*%
G04 Gerber Fmt 4.6, Leading zero omitted, Abs format (unit mm)*
G04 Created by KiCad (PCBNEW (5.1.5)-3) date 2020-02-11 13:38:22*
%MOMM*%
%LPD*%
G04 APERTURE LIST*
%ADD10C,0.120000*%
%ADD11C,0.254000*%
%ADD12C,0.152400*%
%ADD13C,0.150000*%
G04 APERTURE END LIST*
D10*
X154940000Y-49590000D02*
X153610000Y-49590000D01*
X153610000Y-49590000D02*
X153610000Y-48260000D01*
X153610000Y-46990000D02*
X153610000Y-44390000D01*
X156270000Y-44390000D02*
X153610000Y-44390000D01*
X156270000Y-46990000D02*
X156270000Y-44390000D01*
X156270000Y-46990000D02*
X153610000Y-46990000D01*
X154940000Y-40700000D02*
X153610000Y-40700000D01*
X153610000Y-40700000D02*
X153610000Y-39370000D01*
X153610000Y-38100000D02*
X153610000Y-35500000D01*
X156270000Y-35500000D02*
X153610000Y-35500000D01*
X156270000Y-38100000D02*
X156270000Y-35500000D01*
X156270000Y-38100000D02*
X153610000Y-38100000D01*
X179130000Y-36830000D02*
X179130000Y-38160000D01*
X179130000Y-38160000D02*
X177800000Y-38160000D01*
X176530000Y-38160000D02*
X168850000Y-38160000D01*
X168850000Y-35500000D02*
X168850000Y-38160000D01*
X176530000Y-35500000D02*
X168850000Y-35500000D01*
X176530000Y-35500000D02*
X176530000Y-38160000D01*
X143570000Y-36830000D02*
X143570000Y-38160000D01*
X143570000Y-38160000D02*
X142240000Y-38160000D01*
X140970000Y-38160000D02*
X133290000Y-38160000D01*
X133290000Y-35500000D02*
X133290000Y-38160000D01*
X140970000Y-35500000D02*
X133290000Y-35500000D01*
X140970000Y-35500000D02*
X140970000Y-38160000D01*
X203200000Y-108010000D02*
X201870000Y-108010000D01*
X201870000Y-108010000D02*
X201870000Y-106680000D01*
X201870000Y-105410000D02*
X201870000Y-97730000D01*
X204530000Y-97730000D02*
X201870000Y-97730000D01*
X204530000Y-105410000D02*
X204530000Y-97730000D01*
X204530000Y-105410000D02*
X201870000Y-105410000D01*
X190500000Y-30480000D02*
X190500000Y-29210000D01*
X190500000Y-38100000D02*
X190500000Y-39370000D01*
X190500000Y-39370000D02*
X184150000Y-39370000D01*
X190500000Y-29210000D02*
X190500000Y-38100000D01*
X184150000Y-29210000D02*
X190500000Y-29210000D01*
X184150000Y-39370000D02*
X184150000Y-29210000D01*
X190500000Y-35560000D02*
X190500000Y-33020000D01*
X190500000Y-33020000D02*
X190500000Y-30480000D01*
X190500000Y-38100000D02*
X190500000Y-35560000D01*
X190500000Y-33020000D02*
X190500000Y-35560000D01*
X207630000Y-102520000D02*
X211470000Y-102520000D01*
X207630000Y-100680000D02*
X211470000Y-100680000D01*
X207630000Y-105060000D02*
X211470000Y-105060000D01*
X207630000Y-103220000D02*
X211470000Y-103220000D01*
X207630000Y-107600000D02*
X211470000Y-107600000D01*
X207630000Y-105760000D02*
X211470000Y-105760000D01*
D11*
X201422000Y-79248000D02*
X226060000Y-79248000D01*
X226060000Y-79248000D02*
X226060000Y-93472000D01*
X226060000Y-93472000D02*
X201422000Y-93472000D01*
X201422000Y-93472000D02*
X201422000Y-79248000D01*
D12*
X204470000Y-81280000D02*
X201930000Y-81280000D01*
X201930000Y-81280000D02*
X201930000Y-83820000D01*
X201930000Y-83820000D02*
X201930000Y-91440000D01*
X201930000Y-91440000D02*
X207010000Y-91440000D01*
X207010000Y-91440000D02*
X207010000Y-81280000D01*
X207010000Y-81280000D02*
X204470000Y-81280000D01*
D10*
X148720000Y-53340000D02*
X128140000Y-53340000D01*
X146050000Y-43180000D02*
X128140000Y-43180000D01*
X148720000Y-41910000D02*
X148720000Y-40510000D01*
X148720000Y-40510000D02*
X147320000Y-40510000D01*
X148720000Y-43180000D02*
X146050000Y-43180000D01*
X146050000Y-43180000D02*
X146050000Y-40510000D01*
X146050000Y-40510000D02*
X128140000Y-40510000D01*
X128140000Y-40510000D02*
X128140000Y-56010000D01*
X128140000Y-56010000D02*
X148720000Y-56010000D01*
X148720000Y-56010000D02*
X148720000Y-43180000D01*
X184280000Y-56010000D02*
X184280000Y-43180000D01*
X163700000Y-56010000D02*
X184280000Y-56010000D01*
X163700000Y-40510000D02*
X163700000Y-56010000D01*
X181610000Y-40510000D02*
X163700000Y-40510000D01*
X181610000Y-43180000D02*
X181610000Y-40510000D01*
X184280000Y-43180000D02*
X181610000Y-43180000D01*
X184280000Y-40510000D02*
X182880000Y-40510000D01*
X184280000Y-41910000D02*
X184280000Y-40510000D01*
X181610000Y-43180000D02*
X163700000Y-43180000D01*
X184280000Y-53340000D02*
X163700000Y-53340000D01*
X214010000Y-50450000D02*
X210170000Y-50450000D01*
X214010000Y-48610000D02*
X210170000Y-48610000D01*
X210170000Y-54260000D02*
X214010000Y-54260000D01*
X210170000Y-52420000D02*
X214010000Y-52420000D01*
X207630000Y-99980000D02*
X211470000Y-99980000D01*
X207630000Y-98140000D02*
X211470000Y-98140000D01*
X204470000Y-118170000D02*
X204470000Y-115510000D01*
X204470000Y-118170000D02*
X212150000Y-118170000D01*
X212150000Y-118170000D02*
X212150000Y-115510000D01*
X204470000Y-115510000D02*
X212150000Y-115510000D01*
X201870000Y-115510000D02*
X203200000Y-115510000D01*
X201870000Y-116840000D02*
X201870000Y-115510000D01*
X119320000Y-86360000D02*
X121980000Y-86360000D01*
X119320000Y-86360000D02*
X119320000Y-99120000D01*
X119320000Y-99120000D02*
X121980000Y-99120000D01*
X121980000Y-86360000D02*
X121980000Y-99120000D01*
X121980000Y-83760000D02*
X121980000Y-85090000D01*
X120650000Y-83760000D02*
X121980000Y-83760000D01*
D13*
X154606666Y-50212380D02*
X154606666Y-50926666D01*
X154559047Y-51069523D01*
X154463809Y-51164761D01*
X154320952Y-51212380D01*
X154225714Y-51212380D01*
X155511428Y-50212380D02*
X155320952Y-50212380D01*
X155225714Y-50260000D01*
X155178095Y-50307619D01*
X155082857Y-50450476D01*
X155035238Y-50640952D01*
X155035238Y-51021904D01*
X155082857Y-51117142D01*
X155130476Y-51164761D01*
X155225714Y-51212380D01*
X155416190Y-51212380D01*
X155511428Y-51164761D01*
X155559047Y-51117142D01*
X155606666Y-51021904D01*
X155606666Y-50783809D01*
X155559047Y-50688571D01*
X155511428Y-50640952D01*
X155416190Y-50593333D01*
X155225714Y-50593333D01*
X155130476Y-50640952D01*
X155082857Y-50688571D01*
X155035238Y-50783809D01*
X154606666Y-41322380D02*
X154606666Y-42036666D01*
X154559047Y-42179523D01*
X154463809Y-42274761D01*
X154320952Y-42322380D01*
X154225714Y-42322380D01*
X154987619Y-41322380D02*
X155654285Y-41322380D01*
X155225714Y-42322380D01*
X179752380Y-37163333D02*
X180466666Y-37163333D01*
X180609523Y-37210952D01*
X180704761Y-37306190D01*
X180752380Y-37449047D01*
X180752380Y-37544285D01*
X180752380Y-36163333D02*
X180752380Y-36734761D01*
X180752380Y-36449047D02*
X179752380Y-36449047D01*
X179895238Y-36544285D01*
X179990476Y-36639523D01*
X180038095Y-36734761D01*
X144192380Y-37163333D02*
X144906666Y-37163333D01*
X145049523Y-37210952D01*
X145144761Y-37306190D01*
X145192380Y-37449047D01*
X145192380Y-37544285D01*
X144287619Y-36734761D02*
X144240000Y-36687142D01*
X144192380Y-36591904D01*
X144192380Y-36353809D01*
X144240000Y-36258571D01*
X144287619Y-36210952D01*
X144382857Y-36163333D01*
X144478095Y-36163333D01*
X144620952Y-36210952D01*
X145192380Y-36782380D01*
X145192380Y-36163333D01*
X202866666Y-108632380D02*
X202866666Y-109346666D01*
X202819047Y-109489523D01*
X202723809Y-109584761D01*
X202580952Y-109632380D01*
X202485714Y-109632380D01*
X203771428Y-108965714D02*
X203771428Y-109632380D01*
X203533333Y-108584761D02*
X203295238Y-109299047D01*
X203914285Y-109299047D01*
X190862380Y-31353333D02*
X191576666Y-31353333D01*
X191719523Y-31400952D01*
X191814761Y-31496190D01*
X191862380Y-31639047D01*
X191862380Y-31734285D01*
X190862380Y-30400952D02*
X190862380Y-30877142D01*
X191338571Y-30924761D01*
X191290952Y-30877142D01*
X191243333Y-30781904D01*
X191243333Y-30543809D01*
X191290952Y-30448571D01*
X191338571Y-30400952D01*
X191433809Y-30353333D01*
X191671904Y-30353333D01*
X191767142Y-30400952D01*
X191814761Y-30448571D01*
X191862380Y-30543809D01*
X191862380Y-30781904D01*
X191814761Y-30877142D01*
X191767142Y-30924761D01*
X193992380Y-33083333D02*
X193516190Y-33416666D01*
X193992380Y-33654761D02*
X192992380Y-33654761D01*
X192992380Y-33273809D01*
X193040000Y-33178571D01*
X193087619Y-33130952D01*
X193182857Y-33083333D01*
X193325714Y-33083333D01*
X193420952Y-33130952D01*
X193468571Y-33178571D01*
X193516190Y-33273809D01*
X193516190Y-33654761D01*
X193468571Y-32654761D02*
X193468571Y-32321428D01*
X193992380Y-32178571D02*
X193992380Y-32654761D01*
X192992380Y-32654761D01*
X192992380Y-32178571D01*
X193468571Y-31416666D02*
X193468571Y-31750000D01*
X193992380Y-31750000D02*
X192992380Y-31750000D01*
X192992380Y-31273809D01*
X192992380Y-30750000D02*
X193230476Y-30750000D01*
X193135238Y-30988095D02*
X193230476Y-30750000D01*
X193135238Y-30511904D01*
X193420952Y-30892857D02*
X193230476Y-30750000D01*
X193420952Y-30607142D01*
X192992380Y-29988095D02*
X193230476Y-29988095D01*
X193135238Y-30226190D02*
X193230476Y-29988095D01*
X193135238Y-29750000D01*
X193420952Y-30130952D02*
X193230476Y-29988095D01*
X193420952Y-29845238D01*
X209383333Y-99132380D02*
X209050000Y-98656190D01*
X208811904Y-99132380D02*
X208811904Y-98132380D01*
X209192857Y-98132380D01*
X209288095Y-98180000D01*
X209335714Y-98227619D01*
X209383333Y-98322857D01*
X209383333Y-98465714D01*
X209335714Y-98560952D01*
X209288095Y-98608571D01*
X209192857Y-98656190D01*
X208811904Y-98656190D01*
X210288095Y-98132380D02*
X209811904Y-98132380D01*
X209764285Y-98608571D01*
X209811904Y-98560952D01*
X209907142Y-98513333D01*
X210145238Y-98513333D01*
X210240476Y-98560952D01*
X210288095Y-98608571D01*
X210335714Y-98703809D01*
X210335714Y-98941904D01*
X210288095Y-99037142D01*
X210240476Y-99084761D01*
X210145238Y-99132380D01*
X209907142Y-99132380D01*
X209811904Y-99084761D01*
X209764285Y-99037142D01*
X209383333Y-101672380D02*
X209050000Y-101196190D01*
X208811904Y-101672380D02*
X208811904Y-100672380D01*
X209192857Y-100672380D01*
X209288095Y-100720000D01*
X209335714Y-100767619D01*
X209383333Y-100862857D01*
X209383333Y-101005714D01*
X209335714Y-101100952D01*
X209288095Y-101148571D01*
X209192857Y-101196190D01*
X208811904Y-101196190D01*
X210240476Y-101005714D02*
X210240476Y-101672380D01*
X210002380Y-100624761D02*
X209764285Y-101339047D01*
X210383333Y-101339047D01*
X209383333Y-104212380D02*
X209050000Y-103736190D01*
X208811904Y-104212380D02*
X208811904Y-103212380D01*
X209192857Y-103212380D01*
X209288095Y-103260000D01*
X209335714Y-103307619D01*
X209383333Y-103402857D01*
X209383333Y-103545714D01*
X209335714Y-103640952D01*
X209288095Y-103688571D01*
X209192857Y-103736190D01*
X208811904Y-103736190D01*
X209716666Y-103212380D02*
X210335714Y-103212380D01*
X210002380Y-103593333D01*
X210145238Y-103593333D01*
X210240476Y-103640952D01*
X210288095Y-103688571D01*
X210335714Y-103783809D01*
X210335714Y-104021904D01*
X210288095Y-104117142D01*
X210240476Y-104164761D01*
X210145238Y-104212380D01*
X209859523Y-104212380D01*
X209764285Y-104164761D01*
X209716666Y-104117142D01*
X202692095Y-77430380D02*
X202692095Y-78239904D01*
X202739714Y-78335142D01*
X202787333Y-78382761D01*
X202882571Y-78430380D01*
X203073047Y-78430380D01*
X203168285Y-78382761D01*
X203215904Y-78335142D01*
X203263523Y-78239904D01*
X203263523Y-77430380D01*
X204263523Y-78430380D02*
X203692095Y-78430380D01*
X203977809Y-78430380D02*
X203977809Y-77430380D01*
X203882571Y-77573238D01*
X203787333Y-77668476D01*
X203692095Y-77716095D01*
X150026666Y-48974285D02*
X150026666Y-48498095D01*
X150312380Y-49069523D02*
X149312380Y-48736190D01*
X150312380Y-48402857D01*
X149407619Y-48117142D02*
X149360000Y-48069523D01*
X149312380Y-47974285D01*
X149312380Y-47736190D01*
X149360000Y-47640952D01*
X149407619Y-47593333D01*
X149502857Y-47545714D01*
X149598095Y-47545714D01*
X149740952Y-47593333D01*
X150312380Y-48164761D01*
X150312380Y-47545714D01*
X185586666Y-48974285D02*
X185586666Y-48498095D01*
X185872380Y-49069523D02*
X184872380Y-48736190D01*
X185872380Y-48402857D01*
X185872380Y-47545714D02*
X185872380Y-48117142D01*
X185872380Y-47831428D02*
X184872380Y-47831428D01*
X185015238Y-47926666D01*
X185110476Y-48021904D01*
X185158095Y-48117142D01*
X211923333Y-51902380D02*
X211590000Y-51426190D01*
X211351904Y-51902380D02*
X211351904Y-50902380D01*
X211732857Y-50902380D01*
X211828095Y-50950000D01*
X211875714Y-50997619D01*
X211923333Y-51092857D01*
X211923333Y-51235714D01*
X211875714Y-51330952D01*
X211828095Y-51378571D01*
X211732857Y-51426190D01*
X211351904Y-51426190D01*
X212875714Y-51902380D02*
X212304285Y-51902380D01*
X212590000Y-51902380D02*
X212590000Y-50902380D01*
X212494761Y-51045238D01*
X212399523Y-51140476D01*
X212304285Y-51188095D01*
X211923333Y-51872380D02*
X211590000Y-51396190D01*
X211351904Y-51872380D02*
X211351904Y-50872380D01*
X211732857Y-50872380D01*
X211828095Y-50920000D01*
X211875714Y-50967619D01*
X211923333Y-51062857D01*
X211923333Y-51205714D01*
X211875714Y-51300952D01*
X211828095Y-51348571D01*
X211732857Y-51396190D01*
X211351904Y-51396190D01*
X212304285Y-50967619D02*
X212351904Y-50920000D01*
X212447142Y-50872380D01*
X212685238Y-50872380D01*
X212780476Y-50920000D01*
X212828095Y-50967619D01*
X212875714Y-51062857D01*
X212875714Y-51158095D01*
X212828095Y-51300952D01*
X212256666Y-51872380D01*
X212875714Y-51872380D01*
X209383333Y-97592380D02*
X209050000Y-97116190D01*
X208811904Y-97592380D02*
X208811904Y-96592380D01*
X209192857Y-96592380D01*
X209288095Y-96640000D01*
X209335714Y-96687619D01*
X209383333Y-96782857D01*
X209383333Y-96925714D01*
X209335714Y-97020952D01*
X209288095Y-97068571D01*
X209192857Y-97116190D01*
X208811904Y-97116190D01*
X210240476Y-96592380D02*
X210050000Y-96592380D01*
X209954761Y-96640000D01*
X209907142Y-96687619D01*
X209811904Y-96830476D01*
X209764285Y-97020952D01*
X209764285Y-97401904D01*
X209811904Y-97497142D01*
X209859523Y-97544761D01*
X209954761Y-97592380D01*
X210145238Y-97592380D01*
X210240476Y-97544761D01*
X210288095Y-97497142D01*
X210335714Y-97401904D01*
X210335714Y-97163809D01*
X210288095Y-97068571D01*
X210240476Y-97020952D01*
X210145238Y-96973333D01*
X209954761Y-96973333D01*
X209859523Y-97020952D01*
X209811904Y-97068571D01*
X209764285Y-97163809D01*
X199882380Y-117173333D02*
X200596666Y-117173333D01*
X200739523Y-117220952D01*
X200834761Y-117316190D01*
X200882380Y-117459047D01*
X200882380Y-117554285D01*
X199882380Y-116792380D02*
X199882380Y-116173333D01*
X200263333Y-116506666D01*
X200263333Y-116363809D01*
X200310952Y-116268571D01*
X200358571Y-116220952D01*
X200453809Y-116173333D01*
X200691904Y-116173333D01*
X200787142Y-116220952D01*
X200834761Y-116268571D01*
X200882380Y-116363809D01*
X200882380Y-116649523D01*
X200834761Y-116744761D01*
X200787142Y-116792380D01*
X119888095Y-81772380D02*
X119888095Y-82581904D01*
X119935714Y-82677142D01*
X119983333Y-82724761D01*
X120078571Y-82772380D01*
X120269047Y-82772380D01*
X120364285Y-82724761D01*
X120411904Y-82677142D01*
X120459523Y-82581904D01*
X120459523Y-81772380D01*
X120888095Y-81867619D02*
X120935714Y-81820000D01*
X121030952Y-81772380D01*
X121269047Y-81772380D01*
X121364285Y-81820000D01*
X121411904Y-81867619D01*
X121459523Y-81962857D01*
X121459523Y-82058095D01*
X121411904Y-82200952D01*
X120840476Y-82772380D01*
X121459523Y-82772380D01*
M02*
