G04 #@! TF.GenerationSoftware,KiCad,Pcbnew,(5.1.5)-3*
G04 #@! TF.CreationDate,2020-02-11T13:38:22+02:00*
G04 #@! TF.ProjectId,PCB,5043422e-6b69-4636-9164-5f7063625858,rev?*
G04 #@! TF.SameCoordinates,Original*
G04 #@! TF.FileFunction,Legend,Bot*
G04 #@! TF.FilePolarity,Positive*
%FSLAX46Y46*%
G04 Gerber Fmt 4.6, Leading zero omitted, Abs format (unit mm)*
G04 Created by KiCad (PCBNEW (5.1.5)-3) date 2020-02-11 13:38:22*
%MOMM*%
%LPD*%
G04 APERTURE LIST*
%ADD10C,0.120000*%
%ADD11C,0.150000*%
G04 APERTURE END LIST*
D10*
X195710000Y-72640000D02*
X198250000Y-75180000D01*
X195710000Y-61210000D02*
X195710000Y-72640000D01*
X194060000Y-59560000D02*
X195710000Y-61210000D01*
X129410000Y-59560000D02*
X194060000Y-59560000D01*
X129410000Y-69090000D02*
X129410000Y-59560000D01*
X123060000Y-69090000D02*
X129410000Y-69090000D01*
X123060000Y-80770000D02*
X123060000Y-69090000D01*
X129410000Y-80770000D02*
X123060000Y-80770000D01*
X129410000Y-100840000D02*
X129410000Y-80770000D01*
X127510000Y-100840000D02*
X129410000Y-100840000D01*
X127510000Y-109980000D02*
X127510000Y-100840000D01*
X129410000Y-109980000D02*
X127510000Y-109980000D01*
X129410000Y-113160000D02*
X129410000Y-109980000D01*
X195710000Y-113160000D02*
X129410000Y-113160000D01*
X195710000Y-110490000D02*
X195710000Y-113160000D01*
X198250000Y-107950000D02*
X195710000Y-110490000D01*
X198250000Y-75180000D02*
X198250000Y-107950000D01*
D11*
X159464285Y-114466666D02*
X158988095Y-114466666D01*
X159559523Y-114752380D02*
X159226190Y-113752380D01*
X158892857Y-114752380D01*
X158654761Y-113752380D02*
X158035714Y-113752380D01*
X158369047Y-114133333D01*
X158226190Y-114133333D01*
X158130952Y-114180952D01*
X158083333Y-114228571D01*
X158035714Y-114323809D01*
X158035714Y-114561904D01*
X158083333Y-114657142D01*
X158130952Y-114704761D01*
X158226190Y-114752380D01*
X158511904Y-114752380D01*
X158607142Y-114704761D01*
X158654761Y-114657142D01*
M02*
