G04 #@! TF.GenerationSoftware,KiCad,Pcbnew,(5.1.5)-3*
G04 #@! TF.CreationDate,2020-02-12T22:03:26+02:00*
G04 #@! TF.ProjectId,PCB,5043422e-6b69-4636-9164-5f7063625858,rev?*
G04 #@! TF.SameCoordinates,Original*
G04 #@! TF.FileFunction,Copper,L2,Bot*
G04 #@! TF.FilePolarity,Positive*
%FSLAX46Y46*%
G04 Gerber Fmt 4.6, Leading zero omitted, Abs format (unit mm)*
G04 Created by KiCad (PCBNEW (5.1.5)-3) date 2020-02-12 22:03:26*
%MOMM*%
%LPD*%
G04 APERTURE LIST*
%ADD10O,1.600000X1.600000*%
%ADD11R,1.600000X1.600000*%
%ADD12O,1.700000X1.700000*%
%ADD13R,1.700000X1.700000*%
%ADD14C,1.524000*%
%ADD15O,1.400000X1.400000*%
%ADD16C,1.400000*%
%ADD17R,1.727200X1.727200*%
%ADD18O,1.727200X1.727200*%
G04 APERTURE END LIST*
D10*
X182880000Y-54610000D03*
X165100000Y-41910000D03*
X180340000Y-54610000D03*
X167640000Y-41910000D03*
X177800000Y-54610000D03*
X170180000Y-41910000D03*
X175260000Y-54610000D03*
X172720000Y-41910000D03*
X172720000Y-54610000D03*
X175260000Y-41910000D03*
X170180000Y-54610000D03*
X177800000Y-41910000D03*
X167640000Y-54610000D03*
X180340000Y-41910000D03*
X165100000Y-54610000D03*
D11*
X182880000Y-41910000D03*
D12*
X154940000Y-45720000D03*
D13*
X154940000Y-48260000D03*
D12*
X154940000Y-36830000D03*
D13*
X154940000Y-39370000D03*
D12*
X170180000Y-36830000D03*
X172720000Y-36830000D03*
X175260000Y-36830000D03*
D13*
X177800000Y-36830000D03*
D12*
X134620000Y-36830000D03*
X137160000Y-36830000D03*
X139700000Y-36830000D03*
D13*
X142240000Y-36830000D03*
D12*
X203200000Y-99060000D03*
X203200000Y-101600000D03*
X203200000Y-104140000D03*
D13*
X203200000Y-106680000D03*
D14*
X187960000Y-34290000D03*
X187960000Y-31750000D03*
X187960000Y-36830000D03*
D10*
X190500000Y-64770000D03*
X193040000Y-64770000D03*
X153420000Y-64770000D03*
X193040000Y-107950000D03*
X155960000Y-64770000D03*
X190500000Y-107950000D03*
X158500000Y-64770000D03*
X187960000Y-107950000D03*
X161040000Y-64770000D03*
X185420000Y-107950000D03*
X163830000Y-64770000D03*
X182880000Y-107950000D03*
X166370000Y-64770000D03*
X180340000Y-107950000D03*
X168910000Y-64770000D03*
X175260000Y-107950000D03*
X171450000Y-64770000D03*
X172720000Y-107950000D03*
X175260000Y-64770000D03*
X170180000Y-107950000D03*
X177800000Y-64770000D03*
X167640000Y-107950000D03*
X180340000Y-64770000D03*
X165100000Y-107950000D03*
X182880000Y-64770000D03*
X162560000Y-107950000D03*
X185420000Y-64770000D03*
X160020000Y-107950000D03*
X187960000Y-64770000D03*
D11*
X157480000Y-107950000D03*
D10*
X150880000Y-64770000D03*
X148340000Y-64770000D03*
D15*
X212090000Y-101600000D03*
D16*
X207010000Y-101600000D03*
D15*
X212090000Y-104140000D03*
D16*
X207010000Y-104140000D03*
D15*
X212090000Y-106680000D03*
D16*
X207010000Y-106680000D03*
D17*
X203200000Y-82550000D03*
D18*
X205740000Y-82550000D03*
X203200000Y-85090000D03*
X205740000Y-85090000D03*
X203200000Y-87630000D03*
X205740000Y-87630000D03*
X203200000Y-90170000D03*
X205740000Y-90170000D03*
D11*
X147320000Y-41910000D03*
D10*
X129540000Y-54610000D03*
X144780000Y-41910000D03*
X132080000Y-54610000D03*
X142240000Y-41910000D03*
X134620000Y-54610000D03*
X139700000Y-41910000D03*
X137160000Y-54610000D03*
X137160000Y-41910000D03*
X139700000Y-54610000D03*
X134620000Y-41910000D03*
X142240000Y-54610000D03*
X132080000Y-41910000D03*
X144780000Y-54610000D03*
X129540000Y-41910000D03*
X147320000Y-54610000D03*
D16*
X214630000Y-49530000D03*
D15*
X209550000Y-49530000D03*
X214630000Y-53340000D03*
D16*
X209550000Y-53340000D03*
D15*
X212090000Y-99060000D03*
D16*
X207010000Y-99060000D03*
D13*
X203200000Y-116840000D03*
D12*
X205740000Y-116840000D03*
X208280000Y-116840000D03*
X210820000Y-116840000D03*
D13*
X120650000Y-85090000D03*
D12*
X120650000Y-87630000D03*
X120650000Y-90170000D03*
X120650000Y-92710000D03*
X120650000Y-95250000D03*
X120650000Y-97790000D03*
M02*
